<svg xmlns="http://www.w3.org/2000/svg" viewBox="0 0 174.19 42.55"><title>logo8</title><g id="Capa_2" data-name="Capa 2"><g id="Layer_1" data-name="Layer 1"><g id="layer1"><g id="g3012"><path id="path2998" d="M0,1,8.48,34.49c1.09,4.3,3.07,7.6,7.55,7.6,3.59,0,6.11-1.58,9-5.75L49,1H40.31c-7,0-8.93,3.06-10.79,5.87L19.43,22,14.16,1Z" fill="#fff"/><path id="path3000" d="M67.71,0C51.47,0,42.23,13.56,42.23,24.32c0,11.54,8.35,18.23,20.07,18.23A25.25,25.25,0,0,0,84.61,28.8H69.11A8.73,8.73,0,0,1,63,31c-4.05,0-7-3-7-6.08H82.55c3,0,4.8-.27,4.8-6.73C87.35,7.86,80.2,0,67.71,0ZM66.58,11.52c4.26,0,6.69,3.33,6.69,4.48a.66.66,0,0,1-.7.64H57.91A10.32,10.32,0,0,1,66.58,11.52Z" fill="#fff"/><path id="path3004" d="M154.63,0a25,25,0,0,0-25.37,24.41c0,9.72,6.49,18.14,19.84,18.14,14,0,25.09-11.34,25.09-24.63C174.19,7.56,166.56,0,154.63,0Zm-1.31,12.59c5.33,0,6.66,4.35,6.66,6.61,0,5.2-4.42,10.78-9.83,10.78a6.35,6.35,0,0,1-6.72-6.62C143.43,18,148.05,12.59,153.32,12.59Z" fill="#fff"/><path id="path3008" d="M87.54,1,96,34.49c1.08,4.3,3.06,7.6,7.54,7.6,3.6,0,6.11-1.58,9.05-5.75L136.5,1h-8.64c-7,0-8.94,3.06-10.79,5.87L107,22,101.71,1Z" fill="#fff"/></g></g></g></g></svg>