<svg xmlns="http://www.w3.org/2000/svg" viewBox="0 0 288.41 86.48"><title>logo2</title><g id="Capa_2" data-name="Capa 2"><g id="Layer_1" data-name="Layer 1"><path d="M114.79,23.07c1.32,0,7.09-.43,14.11,4.87a.73.73,0,0,1,.15,1l-3.37,4.72a.73.73,0,0,1-1,.16A20.24,20.24,0,0,0,121.72,32a16.45,16.45,0,0,0-6.93-1.88c-2.29,0-6,.75-6,4.35,0,2.9,2.56,4,10.46,5.94,5.14,1.33,11.15,3.8,11.15,11.68,0,7.25-6,11.83-14.34,11.83-5,0-11.88-1.9-16.24-6.3a.73.73,0,0,1,0-1l3.8-4.46a.73.73,0,0,1,1.05-.07,17.33,17.33,0,0,0,11.4,4.76c6.84,0,6.56-4.12,6.56-4.73,0-1.31-1-3.15-4.32-4.1s-11.85-2.54-15-6.23A10,10,0,0,1,101.08,35C101.08,30.62,103.89,23.07,114.79,23.07Z" fill="#fff"/><path d="M150.08,32.51a12.24,12.24,0,0,0-9.4,4.49V33.89a.73.73,0,0,0-.73-.73h-6.26a.73.73,0,0,0-.73.73V71.47a.73.73,0,0,0,.73.73H140a.72.72,0,0,0,.73-.73V59.77s3.06,4.1,9.7,4.1c5.27,0,13.76-4.23,13.76-15.55S156.18,32.51,150.08,32.51Zm-1.63,24.67c-4.26,0-7.87-3.7-7.87-9,0-3.23,2-8.87,7.78-8.87s8,4.65,8,8.87S154,57.18,148.45,57.18Z" fill="#fff"/><path d="M182.23,32.51a15.84,15.84,0,0,0-16,15.74,16,16,0,1,0,16-15.74Zm.07,24.67a8.67,8.67,0,0,1-8.41-9c0-5.59,4-8.91,8.41-8.91a8.58,8.58,0,0,1,8.28,8.91C190.58,54.3,186.32,57.18,182.3,57.18Z" fill="#fff"/><path d="M218,39.15V33.82a.74.74,0,0,0-.73-.74h-7.15V25.86a.73.73,0,0,0-.73-.74h-6.15a.73.73,0,0,0-.73.74v7.22h-3a.74.74,0,0,0-.74.74v5.33a.73.73,0,0,0,.74.73h3V55c0,3.4,1.55,8.78,8.3,8.78a16.69,16.69,0,0,0,6.77-1.56.71.71,0,0,0,.42-.66V56.32a.58.58,0,0,0-.91-.48,6.23,6.23,0,0,1-3.57,1c-3.22,0-3.4-2.2-3.4-3.74V39.88h7.15A.73.73,0,0,0,218,39.15Z" fill="#fff"/><circle cx="225.04" cy="24.67" r="4.75" fill="#fff"/><rect x="221.21" y="33.08" width="7.63" height="30.17" rx="1.42" fill="#fff"/><path d="M235.64,39.88h-3a.73.73,0,0,1-.73-.73V33.82a.74.74,0,0,1,.73-.74h3V31.15c0-1.29.22-9.43,9.34-9.43,4.52,0,6,1,6,1v5.49c0,.55-.19,1-.77.78a12.29,12.29,0,0,0-3.68-.68,3.11,3.11,0,0,0-3.29,3.26v1.5h11.18a.74.74,0,0,1,.68.47l7.83,20.23,7-20.16a.73.73,0,0,1,.69-.49h6.88a.46.46,0,0,1,.43.62c-1.61,4.17-10.75,27.81-11.93,30.81-1.29,3.3-3.48,7.78-9.78,7.78a12.76,12.76,0,0,1-7-1.86.73.73,0,0,1-.26-.93l2.24-4.8a.38.38,0,0,1,.53-.17,7.52,7.52,0,0,0,3.8,1.16c2.5,0,3.61-2.95,3.61-2.95l-9.58-22.91h-6.31V62.57a.74.74,0,0,1-.74.74h-6.18a.73.73,0,0,1-.73-.74Z" fill="#fff"/><path d="M281.7,35.17H284a2,2,0,0,1,1.45.51,1.56,1.56,0,0,1,.43,1.14v0a1.56,1.56,0,0,1-1.07,1.55L286,40.17h-1.28l-1.08-1.6h-.86v1.6h-1.1Zm2.21,2.43c.54,0,.85-.28.85-.71h0c0-.47-.33-.71-.87-.71H282.8V37.6Z" fill="#fff"/><path d="M283.69,42.51a4.72,4.72,0,1,1,4.72-4.72A4.73,4.73,0,0,1,283.69,42.51Zm0-8.92a4.2,4.2,0,1,0,4.2,4.2A4.2,4.2,0,0,0,283.69,33.59Z" fill="#fff"/><path d="M43.24,0A43.24,43.24,0,1,0,86.48,43.24,43.24,43.24,0,0,0,43.24,0ZM63,62.44a2.84,2.84,0,0,1-2.44,1.37,2.87,2.87,0,0,1-1.46-.4c-17-10.25-37.21-4.32-37.41-4.26a2.84,2.84,0,0,1-1.66-5.44c.92-.28,22.76-6.75,42,4.83A2.84,2.84,0,0,1,63,62.44Zm5.37-12a3.35,3.35,0,0,1-2.91,1.68,3.25,3.25,0,0,1-1.67-.45c-21.4-12.3-42.95-5.14-43.16-5.06a3.36,3.36,0,0,1-2.18-6.35c1-.35,24.68-8.21,48.68,5.59A3.37,3.37,0,0,1,68.41,50.47Zm2.4-11.55a4.17,4.17,0,0,1-1.92-.48c-24.66-12.95-50-5.19-50.24-5.11a4.13,4.13,0,0,1-2.48-7.88c1.16-.37,28.89-8.86,56.56,5.68a4.13,4.13,0,0,1-1.92,7.79Z" fill="#fff"/></g></g></svg>